<svg width="27" height="32" viewBox="0 0 27 32" fill="none" xmlns="http://www.w3.org/2000/svg">
<path d="M17.5 27.1H17.6V27V21V20.9H17.5H16.5H16.4V21V25.9H1.6V6.1H16.4V11V11.1H16.5H17.5H17.6V11V5V4.9H17.5H0.5H0.4V5V27V27.1H0.5H17.5Z" fill="#1F74CA" stroke="#1F74CA" stroke-width="0.2"/>
<path d="M17.5 6.1H17.6V6V3.5V3.49988C17.5992 2.8106 17.325 2.14979 16.8376 1.6624C16.3502 1.17501 15.6894 0.900826 15.0001 0.9H15L3 0.9L2.99988 0.9C2.3106 0.900826 1.64979 1.17501 1.1624 1.6624C0.675006 2.14979 0.400826 2.8106 0.4 3.49988V3.5V6V6.1H0.5H17.5ZM16.4 4.9H1.6V3.5C1.6 3.1287 1.7475 2.7726 2.01005 2.51005C2.2726 2.2475 2.6287 2.1 3 2.1H15C15.3713 2.1 15.7274 2.2475 15.9899 2.51005C16.2525 2.7726 16.4 3.1287 16.4 3.5V4.9Z" fill="#1F74CA" stroke="#1F74CA" stroke-width="0.2"/>
<path d="M8 4.1H10C10.1591 4.1 10.3117 4.03679 10.4243 3.92426C10.5368 3.81174 10.6 3.65913 10.6 3.5C10.6 3.34087 10.5368 3.18826 10.4243 3.07574C10.3117 2.96321 10.1591 2.9 10 2.9H8C7.84087 2.9 7.68826 2.96321 7.57574 3.07574C7.46321 3.18826 7.4 3.34087 7.4 3.5C7.4 3.65913 7.46321 3.81174 7.57574 3.92426C7.68826 4.03679 7.84087 4.1 8 4.1Z" fill="#1F74CA" stroke="#1F74CA" stroke-width="0.2"/>
<path d="M15 31.1H15.0001C15.6894 31.0992 16.3502 30.825 16.8376 30.3376C17.325 29.8502 17.5992 29.1894 17.6 28.5001V28.5V26V25.9H17.5H0.5H0.4V26L0.4 28.5L0.4 28.5001C0.400826 29.1894 0.675006 29.8502 1.1624 30.3376C1.64979 30.825 2.3106 31.0992 2.99988 31.1H3H15ZM1.6 28.5V27.1H16.4V28.5C16.4 28.8713 16.2525 29.2274 15.9899 29.4899C15.7274 29.7525 15.3713 29.9 15 29.9H3C2.6287 29.9 2.2726 29.7525 2.01005 29.4899C1.7475 29.2274 1.6 28.8713 1.6 28.5Z" fill="#1F74CA" stroke="#1F74CA" stroke-width="0.2"/>
<path d="M8 29.1H10C10.1591 29.1 10.3117 29.0368 10.4243 28.9243C10.5368 28.8117 10.6 28.6591 10.6 28.5C10.6 28.3409 10.5368 28.1883 10.4243 28.0757C10.3117 27.9632 10.1591 27.9 10 27.9H8C7.84087 27.9 7.68826 27.9632 7.57574 28.0757C7.46321 28.1883 7.4 28.3409 7.4 28.5C7.4 28.6591 7.46321 28.8117 7.57574 28.9243C7.68826 29.0368 7.84087 29.1 8 29.1Z" fill="#1F74CA" stroke="#1F74CA" stroke-width="0.2"/>
<path d="M7.4 18.9552V18.9555V20.5C7.4 20.7917 7.51589 21.0715 7.72218 21.2778C7.92847 21.4841 8.20826 21.6 8.5 21.6H25.5C25.7917 21.6 26.0715 21.4841 26.2778 21.2778C26.4841 21.0715 26.6 20.7917 26.6 20.5V18.9555V18.9552C26.5993 18.6943 26.5058 18.4422 26.3364 18.2438C26.167 18.0456 25.9328 17.9139 25.6754 17.8724C25.2341 17.7963 24.8339 17.5667 24.5453 17.2242C24.2567 16.8816 24.0984 16.448 24.0984 16C24.0984 15.552 24.2567 15.1184 24.5453 14.7758C24.8339 14.4333 25.2341 14.2037 25.6755 14.1276C25.9328 14.0861 26.167 13.9544 26.3364 13.7562C26.5058 13.5578 26.5993 13.3057 26.6 13.0448V13.0445V11.5C26.6 11.2083 26.4841 10.9285 26.2778 10.7222C26.0715 10.5159 25.7917 10.4 25.5 10.4H8.5C8.20826 10.4 7.92847 10.5159 7.72218 10.7222C7.51589 10.9285 7.4 11.2083 7.4 11.5L7.4 13.0445L7.4 13.0448C7.40073 13.3057 7.49416 13.5578 7.66362 13.7562C7.83295 13.9544 8.06718 14.0861 8.32454 14.1276C8.76586 14.2037 9.16611 14.4333 9.45467 14.7758C9.74334 15.1184 9.90165 15.552 9.90165 16C9.90165 16.448 9.74334 16.8816 9.45467 17.2242C9.16611 17.5667 8.76586 17.7963 8.32454 17.8724C8.06718 17.9139 7.83295 18.0456 7.66362 18.2438C7.49416 18.4422 7.40073 18.6943 7.4 18.9552ZM10.3624 14.0008C9.90895 13.4642 9.28733 13.0982 8.6 12.9613V11.6H25.3993L25.3905 12.96C24.7033 13.099 24.0827 13.4672 23.6309 14.0055C23.1611 14.5653 22.9042 15.2729 22.9055 16.0036C22.9067 16.7343 23.166 17.4411 23.6376 17.9992C24.091 18.5358 24.7127 18.9018 25.4 19.0387V20.4H8.60065L8.60946 19.04C9.29665 18.901 9.91735 18.5328 10.3691 17.9945C10.8389 17.4347 11.0958 16.7271 11.0945 15.9964C11.0933 15.2657 10.834 14.5589 10.3624 14.0008Z" fill="#1F74CA" stroke="#1F74CA" stroke-width="0.2"/>
<path d="M19.5757 13.4243C19.6883 13.5368 19.8409 13.6 20 13.6C20.1591 13.6 20.3117 13.5368 20.4243 13.4243C20.5368 13.3117 20.6 13.1591 20.6 13V11C20.6 10.8409 20.5368 10.6883 20.4243 10.5757C20.3117 10.4632 20.1591 10.4 20 10.4C19.8409 10.4 19.6883 10.4632 19.5757 10.5757C19.4632 10.6883 19.4 10.8409 19.4 11V13C19.4 13.1591 19.4632 13.3117 19.5757 13.4243Z" fill="#1F74CA" stroke="#1F74CA" stroke-width="0.2"/>
<path d="M19.5757 15.9243C19.6883 16.0368 19.8409 16.1 20 16.1C20.1591 16.1 20.3117 16.0368 20.4243 15.9243C20.5368 15.8117 20.6 15.6591 20.6 15.5V14.5C20.6 14.3409 20.5368 14.1883 20.4243 14.0757C20.3117 13.9632 20.1591 13.9 20 13.9C19.8409 13.9 19.6883 13.9632 19.5757 14.0757C19.4632 14.1883 19.4 14.3409 19.4 14.5V15.5C19.4 15.6591 19.4632 15.8117 19.5757 15.9243Z" fill="#1F74CA" stroke="#1F74CA" stroke-width="0.2"/>
<path d="M19.5757 18.4243C19.6883 18.5368 19.8409 18.6 20 18.6C20.1591 18.6 20.3117 18.5368 20.4243 18.4243C20.5368 18.3117 20.6 18.1591 20.6 18V17C20.6 16.8409 20.5368 16.6883 20.4243 16.5757C20.3117 16.4632 20.1591 16.4 20 16.4C19.8409 16.4 19.6883 16.4632 19.5757 16.5757C19.4632 16.6883 19.4 16.8409 19.4 17V18C19.4 18.1591 19.4632 18.3117 19.5757 18.4243Z" fill="#1F74CA" stroke="#1F74CA" stroke-width="0.2"/>
<path d="M19.5757 21.4243C19.6883 21.5368 19.8409 21.6 20 21.6C20.1591 21.6 20.3117 21.5368 20.4243 21.4243C20.5368 21.3117 20.6 21.1591 20.6 21V19.5C20.6 19.3409 20.5368 19.1883 20.4243 19.0757C20.3117 18.9632 20.1591 18.9 20 18.9C19.8409 18.9 19.6883 18.9632 19.5757 19.0757C19.4632 19.1883 19.4 19.3409 19.4 19.5V21C19.4 21.1591 19.4632 21.3117 19.5757 21.4243Z" fill="#1F74CA" stroke="#1F74CA" stroke-width="0.2"/>
<path d="M12.5 14.1H17.5C17.6591 14.1 17.8117 14.0368 17.9243 13.9243C18.0368 13.8117 18.1 13.6591 18.1 13.5C18.1 13.3409 18.0368 13.1883 17.9243 13.0757C17.8117 12.9632 17.6591 12.9 17.5 12.9H12.5C12.3409 12.9 12.1883 12.9632 12.0757 13.0757C11.9632 13.1883 11.9 13.3409 11.9 13.5C11.9 13.6591 11.9632 13.8117 12.0757 13.9243C12.1883 14.0368 12.3409 14.1 12.5 14.1Z" fill="#1F74CA" stroke="#1F74CA" stroke-width="0.2"/>
<path d="M12.5 16.6H17.5C17.6591 16.6 17.8117 16.5368 17.9243 16.4243C18.0368 16.3117 18.1 16.1591 18.1 16C18.1 15.8409 18.0368 15.6883 17.9243 15.5757C17.8117 15.4632 17.6591 15.4 17.5 15.4H12.5C12.3409 15.4 12.1883 15.4632 12.0757 15.5757C11.9632 15.6883 11.9 15.8409 11.9 16C11.9 16.1591 11.9632 16.3117 12.0757 16.4243C12.1883 16.5368 12.3409 16.6 12.5 16.6Z" fill="#1F74CA" stroke="#1F74CA" stroke-width="0.2"/>
<path d="M12.5 19.1H17.5C17.6591 19.1 17.8117 19.0368 17.9243 18.9243C18.0368 18.8117 18.1 18.6591 18.1 18.5C18.1 18.3409 18.0368 18.1883 17.9243 18.0757C17.8117 17.9632 17.6591 17.9 17.5 17.9H12.5C12.3409 17.9 12.1883 17.9632 12.0757 18.0757C11.9632 18.1883 11.9 18.3409 11.9 18.5C11.9 18.6591 11.9632 18.8117 12.0757 18.9243C12.1883 19.0368 12.3409 19.1 12.5 19.1Z" fill="#1F74CA" stroke="#1F74CA" stroke-width="0.2"/>
</svg>
