<svg width="23" height="19" viewBox="0 0 23 19" fill="none" xmlns="http://www.w3.org/2000/svg">
<path d="M20.2707 3.9162H17.9229L16.6267 1.95968C16.1376 1.22598 15.2816 0.785767 14.4012 0.785767H9.02072C8.14028 0.785767 7.28431 1.22598 6.79518 1.95968L5.49898 3.9162H3.15115C1.65931 3.9162 0.460938 5.11457 0.460938 6.60642V16.0955C0.460938 17.5874 1.65931 18.7858 3.15115 18.7858H20.2707C21.7626 18.7858 22.9609 17.5874 22.9609 16.0955V6.60642C22.9609 5.11457 21.7626 3.9162 20.2707 3.9162ZM11.7109 16.5847C8.36039 16.5847 5.64572 13.87 5.64572 10.5195C5.64572 7.16892 8.36039 4.4787 11.7109 4.4787C15.0615 4.4787 17.7762 7.19338 17.7762 10.5439C17.7762 13.87 15.0615 16.5847 11.7109 16.5847ZM19.9283 7.70696C19.9039 7.70696 19.8794 7.70696 19.8305 7.70696H18.8522C18.412 7.68251 18.0696 7.31566 18.0941 6.87544C18.1185 6.45968 18.4365 6.14174 18.8522 6.11729H19.8305C20.2707 6.09283 20.6376 6.43522 20.662 6.87544C20.6865 7.31566 20.3685 7.68251 19.9283 7.70696Z" fill="#1F74CA"/>
<path d="M11.7109 7.16888C9.85224 7.16888 8.33594 8.68519 8.33594 10.5439C8.33594 12.4026 9.85224 13.8944 11.7109 13.8944C13.5696 13.8944 15.0859 12.3781 15.0859 10.5194C15.0859 8.66073 13.5696 7.16888 11.7109 7.16888Z" fill="#1F74CA"/>
</svg>
