<svg width="30" height="30" viewBox="0 0 30 30" fill="none" xmlns="http://www.w3.org/2000/svg">
<path d="M26.1914 28.2422C25.0798 28.2422 24.1406 27.5714 24.1406 26.7774C24.1406 25.9833 25.0798 25.3125 26.1914 25.3125C27.303 25.3125 28.2422 25.9833 28.2422 26.7774C28.2422 27.5714 27.303 28.2422 26.1914 28.2422ZM15 22.3828C12.6179 22.3828 10.6055 21.1754 10.6055 19.7461C10.6055 18.6389 11.8522 17.6224 13.5833 17.2552L14.2532 18.3346C14.5971 18.8885 15.4029 18.8885 15.7468 18.3346L16.4167 17.2552C18.1478 17.6224 19.3945 18.6389 19.3945 19.7461C19.3945 21.1754 17.3821 22.3828 15 22.3828ZM10.7619 9.3765C9.7933 7.81603 9.74813 5.92614 10.6409 4.32108C11.5338 2.71609 13.1633 1.75784 15 1.75784C16.8367 1.75784 18.4662 2.71609 19.3591 4.32108C20.2519 5.92614 20.2067 7.81603 19.2381 9.3765L15 16.2045L10.7619 9.3765ZM3.80859 28.2422C2.69695 28.2422 1.75781 27.5714 1.75781 26.7774C1.75781 25.9833 2.69695 25.3125 3.80859 25.3125C4.92023 25.3125 5.85938 25.9833 5.85938 26.7774C5.85938 27.5714 4.92023 28.2422 3.80859 28.2422ZM3.80859 15.3516C2.69695 15.3516 1.75781 14.6808 1.75781 13.8867C1.75781 13.0927 2.69695 12.4219 3.80859 12.4219C4.92023 12.4219 5.85938 13.0927 5.85938 13.8867C5.85938 14.6808 4.92023 15.3516 3.80859 15.3516ZM26.1914 12.4219C27.303 12.4219 28.2422 13.0927 28.2422 13.8867C28.2422 14.6808 27.303 15.3516 26.1914 15.3516C25.0798 15.3516 24.1406 14.6808 24.1406 13.8867C24.1406 13.0927 25.0798 12.4219 26.1914 12.4219ZM26.1914 23.5547C25.2984 23.5547 24.477 23.8168 23.8269 24.2539L20.2808 22.0259C20.8493 21.3509 21.1523 20.5705 21.1523 19.7461C21.1523 19.0737 20.9433 18.4212 20.5507 17.8321L23.5925 16.2395C24.2737 16.7785 25.1875 17.1094 26.1914 17.1094C28.2915 17.1094 30 15.6637 30 13.8867C30 12.1098 28.2915 10.6641 26.1914 10.6641C24.0913 10.6641 22.3828 12.1098 22.3828 13.8867C22.3828 14.206 22.4388 14.5142 22.5414 14.8057L19.2306 16.5391C18.6943 16.18 18.0676 15.8929 17.3877 15.691L20.7316 10.3035C22.0415 8.19308 22.1027 5.63722 20.8952 3.46655C19.6877 1.29595 17.4839 3.05176e-05 15 3.05176e-05C12.5161 3.05176e-05 10.3123 1.29595 9.10483 3.46655C7.89732 5.63722 7.9585 8.19308 9.26842 10.3035L12.6123 15.691C11.9324 15.8929 11.3057 16.18 10.7694 16.5391L7.45857 14.8057C7.56123 14.5142 7.61719 14.206 7.61719 13.8867C7.61719 12.1098 5.90865 10.6641 3.80859 10.6641C1.70854 10.6641 0 12.1098 0 13.8867C0 15.6637 1.70854 17.1094 3.80859 17.1094C4.81254 17.1094 5.72631 16.7785 6.40746 16.2395L9.4493 17.8321C9.05666 18.4212 8.84766 19.0737 8.84766 19.7461C8.84766 20.5705 9.1507 21.3509 9.71924 22.0259L6.17315 24.2539C5.52305 23.8168 4.70156 23.5547 3.80859 23.5547C1.70854 23.5547 0 25.0004 0 26.7774C0 28.5543 1.70854 30 3.80859 30C5.90865 30 7.61719 28.5543 7.61719 26.7774C7.61719 26.3586 7.52127 25.9586 7.34871 25.5912L11.1628 23.1949C12.2453 23.8066 13.5892 24.1407 15 24.1407C16.4108 24.1407 17.7547 23.8066 18.8372 23.1949L22.6513 25.5912C22.4787 25.9586 22.3828 26.3586 22.3828 26.7774C22.3828 28.5543 24.0913 30 26.1914 30C28.2915 30 30 28.5543 30 26.7774C30 25.0004 28.2915 23.5547 26.1914 23.5547Z" fill="#1F74CA"/>
</svg>
