<svg width="536" height="600" viewBox="0 0 536 600" fill="none" xmlns="http://www.w3.org/2000/svg">
<path fill-rule="evenodd" clip-rule="evenodd" d="M170.323 0C206.48 0 240.005 11.2665 267.58 30.4804C295.155 11.2665 328.681 0 364.838 0C458.904 0 535.161 76.256 535.161 170.323C535.161 222.255 511.918 268.759 475.267 300C511.918 331.241 535.161 377.745 535.161 429.677C535.161 523.744 458.904 600 364.838 600C328.681 600 295.155 588.733 267.58 569.52C240.005 588.733 206.48 600 170.323 600C76.256 600 0 523.744 0 429.677C0 377.745 23.2426 331.241 59.8931 300C23.2426 268.759 0 222.255 0 170.323C0 76.256 76.256 0 170.323 0Z" fill="black"/>
</svg>
