<svg width="775" height="622" viewBox="0 0 775 622" fill="none" xmlns="http://www.w3.org/2000/svg">
<path d="M8.3089 307.858C9.48218 308.087 10.6093 308.451 11.6563 308.94C12.877 309.514 13.8366 309.977 14.2819 310.908C14.5008 311.382 14.5694 311.894 14.4816 312.395C14.4816 312.608 15.2493 312.608 15.7637 312.826C16.6859 313.905 17.4584 315.064 18.0669 316.282C18.4039 317.058 18.9869 317.747 19.7567 318.281C20.5266 318.814 21.456 319.172 22.4507 319.319C23.9862 318.694 25.276 318.244 27.0572 317.594C28.8537 318.888 30.8959 319.756 32.2011 321.262C32.7094 321.975 33.4159 322.581 34.2639 323.031C35.1118 323.482 36.0777 323.764 37.0839 323.856C40.1549 324.287 41.9667 325.58 44.2853 327.093C46.3352 328.605 47.886 330.117 48.124 332.492C48.6384 336.16 49.9206 336.378 54.266 335.079C55.5481 334.647 57.0913 334.866 57.337 333.354C59.9012 332.06 60.6766 329.255 63.763 328.605C64.2774 328.386 64.5307 327.742 64.7917 327.524C65.3061 327.093 65.8205 326.23 66.3272 326.23C68.8915 325.799 71.4634 324.937 74.0047 325.799C74.6269 325.866 75.1917 326.13 75.5768 326.533C75.9619 326.937 76.1363 327.448 76.0622 327.955C76.0622 328.174 75.8088 328.58 75.8088 328.817C76.0786 329.399 76.5187 329.918 77.091 330.329C77.4497 330.139 77.7932 329.93 78.1198 329.705C80.1773 328.624 81.9585 327.542 83.494 326.68C86.3269 326.899 87.0947 328.836 88.6378 329.486C90.181 330.136 92.4765 329.917 94.2961 330.348C95.0638 328.836 95.3249 327.761 94.2961 326.468C92.9261 324.781 91.8051 322.969 90.9564 321.069C89.9276 318.694 88.8989 316.319 87.6091 313.945L87.3557 313.726C85.2982 309.839 83.2406 305.952 81.2138 302.284C79.6783 299.479 77.8741 296.885 75.8396 293.648C74.8108 295.592 74.5498 297.104 76.354 298.185C77.9112 299.325 78.9861 300.836 79.4249 302.503C79.8668 304.123 80.4676 305.711 81.2214 307.252C81.4825 307.252 81.7358 307.252 81.7358 307.465C82.5285 308.345 83.2174 309.285 83.7934 310.271C83.1371 309.895 82.5345 309.461 81.9969 308.977C82.5036 309.602 82.7646 310.271 83.279 310.92C84.8145 312.864 85.3365 315.238 86.1043 317.613C86.6187 318.694 86.6187 319.775 86.1043 321.5C85.0755 320.637 84.0467 319.988 83.801 319.338C83.2867 318.044 83.0333 316.751 81.7435 315.888C79.9393 314.589 79.1716 312.864 78.6725 311.139C77.9048 308.546 76.615 306.384 74.0661 304.89C71.6234 303.356 69.8261 301.242 68.9222 298.841C68.6688 298.41 68.6688 297.979 68.4155 297.76C67.8187 297.198 67.3786 296.537 67.1257 295.823C65.5334 293.52 63.5425 291.416 61.2141 289.574L59.6786 290.199V291.28C60.8108 293.354 62.3686 295.256 64.285 296.904C66.3426 298.416 64.7994 301.441 66.3426 303.384C66.3426 303.597 66.5959 303.597 66.5959 303.815C65.4624 304.672 64.2595 305.465 62.9952 306.19C62.4808 305.328 61.7131 304.896 61.4597 304.028C60.7316 301.331 59.2616 298.803 57.1604 296.635C56.646 296.011 56.646 294.904 56.1316 294.261C54.5961 292.099 53.5597 289.512 50.22 288.212C49.1313 287.802 48.2306 287.122 47.648 286.268C46.6193 284.113 44.0473 283.25 42.2738 281.738C42.0372 281.413 41.945 281.031 42.0128 280.657C42.8171 280.271 43.5171 279.757 44.0704 279.145C43.817 277.851 43.0416 277.42 41.7671 277.851C41.5061 278.714 41.2527 278.714 40.4773 278.07C39.9629 277.851 39.4485 277.851 38.9418 277.639C38.4828 277.477 38.0518 277.267 37.6597 277.014C37.3987 276.795 37.9131 276.389 37.9131 275.933C38.1741 276.152 38.6808 276.152 38.9418 276.364C39.2029 276.576 39.2029 276.989 39.4562 277.226H40.224C40.4773 275.07 41.2527 273.127 38.6885 271.402C38.56 271.202 38.4929 270.979 38.4929 270.752C38.4929 270.526 38.56 270.303 38.6885 270.103C39.1538 269.661 39.7855 269.358 40.485 269.24C41.7748 269.459 43.0569 269.865 44.3237 270.103C45.8592 269.461 46.1151 268.599 45.0915 267.516C44.0151 266.607 42.8058 265.81 41.4907 265.141C41.7518 264.516 41.7518 263.841 42.0051 263.198C39.9428 263.019 37.8576 263.166 35.8632 263.629C34.3277 264.06 33.8056 263.198 33.8056 261.035C34.8344 260.823 35.8632 260.604 37.1453 260.411C36.6309 259.329 36.3776 258.467 35.8632 257.386C38.9342 256.955 40.9994 255.224 43.318 253.718C42.0282 252.418 41.2604 251.343 40.247 250.475C37.6751 248.319 35.8785 245.513 32.0168 244.226C31.7634 244.013 31.7634 243.364 31.5024 242.932C36.3929 241.639 38.1894 245.738 42.0435 246.819C42.0435 246.194 42.0435 245.738 41.7902 245.526C41.4548 244.905 41.0212 244.323 40.5004 243.795C38.9649 242.501 37.4294 241.42 35.6175 239.908C35.1031 239.477 34.082 238.833 34.8498 237.971C37.6751 237.752 39.986 237.971 42.0435 239.695C42.5579 240.127 43.8477 239.908 44.8765 239.695C45.1877 239.532 45.4445 239.308 45.6239 239.044C45.8034 238.781 45.9 238.485 45.9053 238.183C45.7888 237.967 45.6113 237.776 45.3872 237.626C45.1631 237.476 44.8987 237.372 44.6155 237.321C38.4735 236.89 34.8498 233.653 31.5024 229.335C32.7922 229.116 33.8056 228.71 34.5734 228.71C35.8632 228.922 37.1453 229.335 38.6885 229.572C38.9418 229.791 39.2029 230.003 39.4562 230.003C39.7096 230.003 39.9706 229.791 40.224 229.572C39.9629 229.572 39.9629 229.36 39.7096 229.36H38.6808C39.4485 228.922 39.9629 228.279 40.7384 227.847C48.1931 232.809 56.4233 235.834 64.1315 238.427C65.9357 240.37 66.7034 242.095 68.2466 242.957C70.7299 244.317 72.6133 246.288 73.6208 248.581C74.3885 250.519 75.425 252.681 78.2272 253.112C77.4595 250.737 76.4307 248.581 75.4019 246.201C73.8665 242.964 70.7955 240.377 69.26 237.133C68.999 236.508 67.9779 235.84 67.2025 235.19C64.8992 233.247 62.834 231.309 60.5154 229.566C58.9395 228.278 57.7151 226.735 56.9224 225.035C56.6613 224.411 56.408 223.736 56.1546 223.092C53.8514 220.068 53.5827 219.205 53.0837 215.968C54.3735 214.887 55.9166 214.669 57.4598 215.75C58.7419 216.831 60.0241 217.693 61.5672 218.987C65.4059 217.043 62.0816 214.456 62.335 212.294C63.317 211.842 64.2608 211.336 65.1603 210.782C63.9867 208.07 63.2939 205.236 63.1027 202.364C65.6746 201.933 67.4788 204.958 70.3041 202.989C70.5575 201.908 71.0719 200.396 71.5863 198.671C72.5374 199.523 73.5638 200.316 74.6572 201.046C75.1716 199.534 75.686 198.24 76.1927 196.94C76.3712 196.594 76.6485 196.287 77.0018 196.044C77.3551 195.802 77.7741 195.632 78.2242 195.548C78.6743 195.463 79.1426 195.467 79.5904 195.56C80.0382 195.652 80.4525 195.83 80.7992 196.078C84.9143 199.315 88.7684 202.558 92.8835 205.795C93.9122 208.382 96.7222 209.682 99.3095 210.975C98.7951 207.52 95.7087 204.933 93.1675 202.771C89.5745 199.752 86.7415 196.078 83.1408 193.054C82.8874 192.841 83.1408 192.429 83.1408 191.979C84.6763 191.354 85.7127 191.76 86.7415 192.841C90.3422 196.297 93.9429 199.965 97.797 203.202C103.209 207.92 108.275 212.895 112.968 218.099C116.307 221.986 119.655 226.085 122.741 229.972C123.509 230.841 123.509 230.841 126.081 231.703C124.791 229.541 123.511 227.598 122.242 225.873C120.952 224.142 118.895 222.636 117.635 220.693C116.376 218.749 114.565 217.237 113.52 215.293C112.238 213.131 110.181 211.625 108.377 209.894C106.572 208.163 105.306 206.445 103.494 204.714C101.682 202.983 100.154 201.477 98.3498 199.752C96.8143 198.24 94.5111 197.159 93.4669 194.785C94.0745 194.666 94.6742 194.522 95.2635 194.353C94.2347 193.054 92.4382 191.76 95.2635 190.035C96.7989 190.898 98.6108 191.76 100.154 192.622C100.293 192.727 100.462 192.8 100.646 192.835C100.83 192.87 101.022 192.866 101.203 192.822C101.384 192.779 101.548 192.698 101.679 192.587C101.81 192.477 101.904 192.34 101.95 192.191C100.668 189.604 96.8066 188.092 97.344 184.424C100.691 183.555 103.778 186.149 107.632 185.049L104.561 173.388C104.561 173.176 104.046 172.957 103.793 172.957C103.238 173.366 102.633 173.728 101.989 174.038C100.96 172.526 100.192 170.583 98.9179 169.72C95.8469 167.564 94.5495 164.54 92.776 161.734C89.9507 157.197 87.1254 152.448 83.0103 148.561C82.2761 147.989 81.7458 147.266 81.4755 146.468C81.2052 145.671 81.2049 144.829 81.4748 144.031C82.7569 143.6 84.0467 143.406 85.0755 142.95C84.5611 140.363 85.0755 137.77 83.2713 135.176C82.2502 133.883 82.7569 132.371 84.3001 131.077C85.5899 131.702 86.872 132.371 87.9008 132.802C89.1906 131.508 90.204 130.646 91.2482 129.565C91.1099 128.584 90.6905 127.643 90.0237 126.818C89.357 125.993 88.4615 125.307 87.4094 124.816C85.056 123.725 83.1779 122.065 82.0352 120.066L80.4998 118.123C79.9854 118.342 79.9854 118.342 79.732 118.342C78.9643 119.417 80.2387 120.929 78.7032 121.579C76.6457 122.204 75.8703 120.716 74.8645 119.848C74.2186 119.232 73.6186 118.585 73.068 117.911C73.819 117.658 74.4233 117.182 74.7572 116.579C75.0912 115.976 75.1296 115.292 74.8645 114.667C74.4395 113.402 74.2659 112.09 74.3501 110.781C74.3501 109.918 75.8856 109.487 76.6534 109.918C77.2993 110.321 77.8243 110.838 78.1889 111.43C79.471 113.161 81.0141 114.024 83.563 114.024C84.7397 114.112 85.8789 114.406 86.9027 114.886C87.962 115.303 89.0893 115.593 90.2501 115.748C93.4571 116.203 96.7567 115.903 99.7624 114.886C98.8784 114.57 98.0194 114.208 97.1905 113.805C94.3575 112.08 91.5322 110.349 87.9315 109.706C87.6782 109.706 87.6782 108.837 87.4171 108.406C89.7204 108.406 91.5322 108.194 93.5591 108.194C94.0735 108.194 95.0946 108.193 95.3556 108.406C96.8911 110.137 99.1943 109.918 101.275 110.349C104.346 110.974 105.881 112.943 105.382 116.598C103.586 118.111 104.868 119.623 106.15 120.485C108.975 122.647 110.265 125.884 114.634 126.734C115.148 126.734 115.401 127.359 115.916 127.815C118.488 130.19 122.864 133.208 125.689 134.064C127.225 134.495 128.261 134.064 129.29 133.195C130.058 130.177 126.219 128.234 126.219 125.209C127.501 124.584 129.044 124.347 130.058 123.485C130.938 122.51 132.098 121.725 133.436 121.198C134.774 120.671 136.25 120.418 137.735 120.46C138.748 120.511 139.756 120.311 140.628 119.888C141.499 119.464 142.193 118.836 142.618 118.086C143.04 117.483 143.634 116.972 144.351 116.597C145.067 116.222 145.884 115.993 146.733 115.93C146.682 117.227 146.77 118.525 146.994 119.81C146.994 120.029 147.508 120.248 147.762 120.679C148.743 120.243 149.771 119.881 150.833 119.598C151.086 117.223 152.629 115.061 154.433 113.124C155.051 113.294 155.652 113.503 156.23 113.749C157.259 114.18 158.034 114.83 159.055 115.042C160.859 115.48 163.431 113.749 163.662 112.237C163.662 110.724 163.408 109.431 163.408 108.137C166.748 105.975 166.479 109.218 168.015 109.862C168.536 109.337 168.967 108.757 169.297 108.137C169.811 107.056 170.065 105.763 171.869 105.544C173.926 105.331 174.172 107.056 174.94 108.137C175.193 108.35 174.94 108.762 175.193 109C174.425 110.081 173.911 110.943 173.136 112.024C175.708 111.805 177.251 109.862 179.569 109C184.452 109.862 184.452 109.862 190.625 108.568C191.713 108.319 192.834 108.174 193.964 108.137C194.479 106.844 196.268 106.194 196.268 104.682C193.964 104.9 191.385 105.307 189.358 105.544C188.59 104.919 188.076 104.25 187.3 103.601C186.018 104.463 184.997 105.544 183.7 105.975C181.903 106.844 180.36 106.194 179.331 104.463C178.303 104.9 177.274 105.088 175.992 105.544C175.8 104.437 175.455 103.351 174.963 102.307C174.448 101.226 173.673 100.151 173.159 99.0701C172.13 96.4768 170.855 94.071 167.508 93.0274C165.973 92.59 165.704 91.2965 165.704 90.0029C165.704 89.1406 166.218 88.4907 166.472 87.6284C170.31 87.4096 170.579 87.1972 171.608 89.1406C172.454 90.9247 173.875 92.4899 175.723 93.6711C177.78 92.3775 179.562 91.0778 181.381 89.7842C185.75 91.2965 187.039 94.5334 187.523 97.7766C188.839 98.1334 190.121 98.5657 191.362 99.0701C192.644 97.1267 192.897 96.908 194.433 96.2643C193.404 94.9646 193.404 94.7521 195.462 92.59C194.971 91.4048 194.37 90.2517 193.665 89.1406C193.143 88.5157 192.13 88.9219 191.861 89.5718C192.122 89.7842 192.629 89.7842 192.629 90.1967C192.89 90.4154 192.629 90.6278 192.89 91.059C192.75 91.0736 192.609 91.0621 192.476 91.0252C192.342 90.9884 192.221 90.9273 192.122 90.8466C191.861 90.6278 191.861 90.2217 191.607 89.9842C189.803 90.4154 188.007 88.9031 186.233 90.4154C185.98 90.6278 184.951 90.1967 184.176 89.7905C183.661 89.578 183.147 89.1656 182.64 89.1656C181.611 89.1656 180.59 89.5968 180.076 88.7282C179.551 88.0112 179.285 87.1881 179.308 86.3536C179.115 82.6287 177.597 79.0295 174.94 75.9929C175.899 74.5227 176.758 73.0102 177.512 71.4625C180.084 71.8936 182.395 71.8936 184.191 73.837C183.423 74.6994 182.656 75.3493 181.888 76.2116C184.191 76.2116 184.191 76.2116 187.546 74.0495C187.228 73.8027 186.967 73.5104 186.778 73.1871C185.75 71.2437 185.75 70.8126 188.314 70.5939C189.343 70.3814 190.118 70.1627 190.371 69.3003C190.886 69.0879 191.139 68.8692 191.661 68.6754C191.661 67.3819 192.429 66.3009 194.226 66.3009C194.015 65.3044 193.93 64.2931 193.972 63.2826C193.972 62.4203 194.74 61.9829 195.769 61.7704C195.769 60.9081 195.515 59.827 195.515 58.9646C197.819 57.6649 198.586 57.6649 199.116 59.1771C199.63 61.5517 201.688 62.6328 203.722 64.1762C206.026 65.9009 208.605 66.3321 211.177 66.5508C211.692 66.5508 212.974 66.5508 212.974 65.4697C212.72 65.2573 212.206 64.6074 211.692 64.6074C209.12 64.6074 207.316 63.3139 205.772 61.8017C204.686 60.837 203.661 59.8275 202.701 58.7772C200.953 56.9541 199.063 55.2238 197.043 53.5968C194.74 51.8721 194.21 49.2788 192.667 47.123C190.906 44.8783 189.442 42.4883 188.299 39.993C187.27 37.6184 184.959 35.4625 183.155 33.3004C182.64 33.0879 183.155 32.4381 183.155 32.0069C184.69 32.2256 185.988 32.2256 187.27 32.4381C188.038 30.7134 187.27 30.0635 185.734 29.4198C183.677 28.3388 183.162 30.4946 181.619 30.7134C179.569 30.2822 178.794 28.9887 179.055 27.2577C179.69 26.5757 180.47 25.9916 181.358 25.533C182.126 25.1018 183.416 24.9081 184.183 24.452C182.387 21.8587 180.59 19.7028 178.809 17.3282C180.099 16.897 181.112 16.7033 181.88 16.4659C183.677 14.3037 183.677 12.1479 181.619 9.98575C178.879 6.89909 176.628 3.54417 174.917 0L775 0V621.766H146.119C145.892 621.284 145.805 620.767 145.865 620.254C145.669 616.528 144.149 612.929 141.489 609.893C142.453 608.422 143.312 606.908 144.061 605.356C146.633 605.787 148.944 605.787 150.748 607.731C149.98 608.593 149.213 609.243 148.445 610.105C150.748 610.105 150.748 610.105 154.096 607.95C153.779 607.701 153.519 607.409 153.328 607.087C152.299 605.144 152.299 604.713 154.863 604.494C155.892 604.281 156.66 604.063 156.921 603.2C157.435 602.982 157.689 602.769 158.203 602.575C158.203 601.282 158.971 600.42 160.775 599.988C160.568 599.061 160.48 598.119 160.514 597.176C160.514 596.314 161.282 595.883 162.318 595.67C162.318 594.802 162.057 593.727 162.057 592.865C164.36 591.565 165.128 591.565 165.658 593.077C166.172 595.452 168.491 596.533 170.264 598.076C172.302 599.568 174.982 600.343 177.719 600.232C178.233 600.232 179.523 600.451 179.523 599.151C179.262 598.939 178.755 598.289 178.233 598.289C175.661 598.289 173.865 596.995 172.322 595.483C171.293 594.621 170.264 593.327 169.251 592.458C167.454 590.734 165.65 589.009 163.593 587.278C161.289 585.553 160.767 582.96 159.224 580.804C157.462 578.562 155.997 576.174 154.856 573.681C153.827 571.306 151.508 569.144 149.965 566.988C149.712 566.769 150.226 566.119 150.226 565.688C151.762 565.688 153.051 565.907 154.341 565.907C155.109 564.182 154.341 563.532 152.806 562.882C150.748 562.02 150.234 563.963 148.691 564.182C146.633 563.557 145.865 562.451 146.119 560.727C146.756 560.044 147.536 559.459 148.422 558.996C149.385 558.676 150.328 558.317 151.247 557.921C149.443 555.546 147.647 553.384 145.873 551.01C147.155 550.578 148.176 550.385 148.944 550.147C150.748 547.985 150.748 545.829 148.691 543.667C144.576 539.349 142.004 534.169 139.693 529.207C134.81 527.695 134.549 527.476 133.551 523.377C135.355 522.083 135.854 524.67 137.152 524.458C136.637 522.946 136.898 521.215 135.869 520.14C132.269 516.466 131.493 511.935 129.436 507.83C131.493 507.617 131.493 507.617 132.507 510.642C136.107 511.504 136.107 511.716 138.418 514.31C138.961 514.793 139.566 515.226 140.222 515.603C140.99 516.228 142.28 516.897 142.794 517.547L151.24 525.964C151.754 526.395 152.522 526.832 153.036 527.264C154.326 528.338 155.608 527.889 156.875 527.476C157.389 524.889 155.339 523.377 153.036 522.515C151.415 521.951 149.998 521.058 148.921 519.921C146.618 517.547 144.038 515.603 143.785 512.366C143.785 511.935 143.27 511.504 143.017 511.073C142.503 509.773 141.735 508.479 141.221 507.186C141.988 507.186 142.756 506.967 143.278 507.398C145.557 509.315 147.703 511.335 149.704 513.447C151.762 515.603 153.305 517.765 155.616 519.696C159.216 522.714 162.817 525.52 165.642 528.976C166.932 530.488 168.99 531.782 171.017 533.513C170.756 532.432 170.756 531.782 170.495 531.569C166.387 527.464 162.525 523.146 158.157 519.259C156.36 517.534 154.556 515.809 152.783 513.866C149.182 509.979 146.096 505.661 141.981 501.993C139.677 500.05 137.612 497.888 134.303 496.594C133.274 497.219 132.499 498.106 131.47 498.75C130.702 498.319 130.188 498.125 129.413 497.669C126.342 495.944 126.342 495.944 128.384 492.92C128.645 492.707 128.898 492.489 128.898 492.295C130.956 491.864 132.737 491.214 134.818 490.783C134.303 487.327 131.47 485.602 127.616 482.796C128.898 485.171 129.674 486.683 130.441 488.42C128.138 488.639 126.603 488.639 125.298 487.127C123.501 484.965 121.19 484.102 118.104 484.965H117.589C116.3 484.965 116.054 484.103 116.561 482.378C117.328 482.59 118.357 482.809 119.386 483.003C119.147 481.406 118.804 479.821 118.357 478.254C116.561 478.685 115.286 478.878 113.474 479.335C113.989 477.391 114.503 475.879 115.01 473.936C112.185 474.798 110.403 473.723 108.584 473.073C105.751 470.48 105.751 470.48 105.236 467.674C101.398 465.3 97.7816 462.713 95.4707 459.038C94.9349 458.167 94.2413 457.367 93.4132 456.664C91.4743 455.416 90.1194 453.664 89.5745 451.702C89.3134 451.077 88.2847 450.402 87.7703 449.971C87.2559 449.54 86.7415 449.54 86.2348 449.346C82.8951 446.972 80.8606 443.297 76.2081 441.785C75.9547 441.785 75.9547 441.572 75.9547 441.354C73.3828 438.336 71.3483 435.53 73.6515 431.643C73.8665 431.011 73.9546 430.355 73.9125 429.7C75.2233 429.885 76.5089 430.174 77.7512 430.562C76.7225 427.969 75.9547 425.594 75.1793 423.219C74.6649 421.926 74.1505 420.632 72.8761 419.764C71.6993 418.955 70.5816 418.091 69.5287 417.177C68.761 415.664 67.4788 414.371 66.9645 412.64C66.1967 410.265 64.1315 408.759 61.8206 407.016C61.3215 407.522 60.9698 408.114 60.7918 408.747C61.5595 410.041 62.0739 411.765 63.3637 412.628C65.082 413.771 66.4049 415.259 67.2025 416.946C67.4635 417.383 68.4923 417.164 69.26 417.383C70.2888 419.32 71.3176 421.264 72.331 423.426C72.8454 424.507 73.0987 425.8 72.0699 426.663C71.4755 427.076 70.7711 427.371 70.0124 427.525C69.7296 427.475 69.4656 427.371 69.2426 427.221C69.0195 427.071 68.8438 426.879 68.7303 426.663C68.9836 424.719 67.7015 423.638 65.905 422.563C65.6367 422.467 65.4021 422.317 65.2225 422.129C65.0429 421.94 64.9239 421.718 64.8762 421.482C64.1084 418.027 61.0375 415.233 59.2179 412.415C58.7035 411.553 57.6824 410.253 58.1891 409.609C59.2179 407.878 57.1604 406.372 57.4214 405.291C58.4502 403.779 60.4924 405.723 61.0145 403.56C60.2467 402.698 58.9646 401.617 57.9435 400.542C56.6537 399.03 56.1393 396.868 54.1048 395.543C53.076 394.918 52.5693 393.387 51.8015 392.087C51.2871 391.225 51.0338 390.144 50.266 389.5C45.1222 384.501 41.2681 378.702 36.3853 373.309C36.4919 373.197 36.5698 373.068 36.6145 372.93C36.6591 372.793 36.6696 372.65 36.6453 372.509C36.621 372.368 36.5624 372.232 36.4729 372.11C36.3834 371.988 36.2649 371.882 36.1242 371.797C34.0667 369.423 31.7558 367.479 29.9823 365.105C27.679 361.861 23.5563 359.481 21.7598 355.819C21.4987 355.388 20.992 354.956 20.4699 354.956C17.1303 354.094 15.8635 351.288 14.328 349.126C13.0459 347.614 12.2781 346.102 9.95954 345.239C8.93077 344.808 8.16302 343.515 7.13425 342.652C5.3147 341.121 4.06328 340.04 3.78689 339.84C0.163148 336.872 -2.35505 324.843 3.42605 311.933C4.10049 310.443 4.86926 308.983 5.72928 307.559" fill="black"/>
</svg>
