<svg width="16" height="17" viewBox="0 0 16 17" fill="none" xmlns="http://www.w3.org/2000/svg">
<g clip-path="url(#clip0_5693_40462)">
<path d="M14 7.66663C14 12.3333 8 16.3333 8 16.3333C8 16.3333 2 12.3333 2 7.66663C2 6.07533 2.63214 4.5492 3.75736 3.42399C4.88258 2.29877 6.4087 1.66663 8 1.66663C9.5913 1.66663 11.1174 2.29877 12.2426 3.42399C13.3679 4.5492 14 6.07533 14 7.66663Z" stroke="#E3E3E3" stroke-width="1.4" stroke-linecap="round" stroke-linejoin="round"/>
<path d="M8 9.66663C9.10457 9.66663 10 8.7712 10 7.66663C10 6.56206 9.10457 5.66663 8 5.66663C6.89543 5.66663 6 6.56206 6 7.66663C6 8.7712 6.89543 9.66663 8 9.66663Z" stroke="#E3E3E3" stroke-width="1.4" stroke-linecap="round" stroke-linejoin="round"/>
</g>
<defs>
<clipPath id="clip0_5693_40462">
<rect width="16" height="17" fill="white"/>
</clipPath>
</defs>
</svg>
