<svg width="12" height="12" viewBox="0 0 12 12" fill="none" xmlns="http://www.w3.org/2000/svg">
<mask id="mask0_6420_62722" style="mask-type:luminance" maskUnits="userSpaceOnUse" x="0" y="0" width="12" height="12">
<path d="M0 9.53674e-07H12V12H0V9.53674e-07Z" fill="white"/>
</mask>
<g mask="url(#mask0_6420_62722)">
<path fill-rule="evenodd" clip-rule="evenodd" d="M0 10.1249C0 11.1605 0.839468 11.9999 1.875 11.9999H6.58594C7.62147 11.9999 8.46094 11.1605 8.46094 10.1249V9.18744C8.46094 8.92856 8.25107 8.71869 7.99219 8.71869C7.7333 8.71869 7.52344 8.92856 7.52344 9.18744V10.1249C7.52344 10.6427 7.1037 11.0624 6.58594 11.0624H1.875C1.35723 11.0624 0.9375 10.6427 0.9375 10.1249V1.87494C0.9375 1.35717 1.35723 0.937439 1.875 0.937439H6.58594C7.1037 0.937439 7.52344 1.35717 7.52344 1.87494V2.81244C7.52344 3.07132 7.7333 3.28119 7.99219 3.28119C8.25107 3.28119 8.46094 3.07132 8.46094 2.81244V1.87494C8.46094 0.839408 7.62147 -6.00815e-05 6.58594 -6.00815e-05H1.875C0.839468 -6.00815e-05 0 0.839408 0 1.87494V10.1249Z" fill="#F04438"/>
<path fill-rule="evenodd" clip-rule="evenodd" d="M4.59375 6.02338C4.59375 6.28226 4.80362 6.49213 5.0625 6.49213H11.4141C11.6729 6.49213 11.8828 6.28226 11.8828 6.02338C11.8828 5.76449 11.6729 5.55463 11.4141 5.55463H5.0625C4.80362 5.55463 4.59375 5.76449 4.59375 6.02338Z" fill="#F04438"/>
<path fill-rule="evenodd" clip-rule="evenodd" d="M9.94589 7.90171C10.129 8.08477 10.4257 8.08476 10.6088 7.9017L11.6585 6.85201C11.6585 6.85201 11.6585 6.85201 11.6585 6.85201C12.1161 6.39436 12.1161 5.6524 11.6585 5.19474C11.6585 5.19474 11.6585 5.19475 11.6585 5.19474L10.6088 4.14505C10.4257 3.96199 10.129 3.96199 9.94589 4.14504C9.76283 4.3281 9.76283 4.62489 9.94588 4.80795L10.9956 5.85765C11.0871 5.94918 11.0871 6.09756 10.9956 6.1891L9.94588 7.2388C9.76283 7.42186 9.76283 7.71866 9.94589 7.90171Z" fill="#F04438"/>
</g>
</svg>
