<svg width="293" height="200" viewBox="0 0 293 200" fill="none" xmlns="http://www.w3.org/2000/svg">
<path d="M255.39 42.1663H255.349L231.812 52.2168L199.608 65.968C199.482 66.021 199.347 66.0486 199.211 66.0493C199.074 66.05 198.939 66.0238 198.812 65.9721L165.588 52.188L141.472 42.1827L141.435 42.1663H141.394C141.014 42.1667 140.649 42.318 140.38 42.5871C140.111 42.8561 139.959 43.221 139.959 43.6015V105.93C139.959 106.311 140.111 106.675 140.38 106.945C140.649 107.214 141.014 107.365 141.394 107.365H255.39C255.771 107.365 256.135 107.214 256.404 106.945C256.673 106.675 256.825 106.311 256.825 105.93V43.6015C256.825 43.221 256.673 42.8561 256.404 42.5871C256.135 42.318 255.771 42.1667 255.39 42.1663Z" fill="white"/>
<path d="M255.493 42.5762C255.451 42.5762 255.41 42.5634 255.376 42.5394L198.674 3.05022C198.501 2.93061 198.296 2.86668 198.086 2.86704C197.876 2.8674 197.671 2.93202 197.499 3.05222L141.205 42.539C141.16 42.57 141.105 42.5821 141.052 42.5726C140.999 42.5632 140.951 42.5329 140.92 42.4885C140.889 42.444 140.877 42.3891 140.886 42.3356C140.895 42.2822 140.925 42.2346 140.969 42.2033L197.264 2.71646C197.505 2.54821 197.791 2.45776 198.085 2.45728C198.379 2.45679 198.666 2.5463 198.908 2.71376L255.61 42.2029C255.646 42.2278 255.673 42.2636 255.687 42.3049C255.701 42.3462 255.702 42.391 255.689 42.4326C255.676 42.4743 255.65 42.5106 255.614 42.5365C255.579 42.5623 255.537 42.5762 255.493 42.5762Z" fill="#3F3D56"/>
<path d="M144.422 43.9762L198.142 4.16309L252.269 46.8089L200.91 77.2555L173.026 70.8999L144.422 43.9762Z" fill="#E6E6E6"/>
<path d="M175.38 96.0613H148.841C148.512 96.0618 148.197 95.9316 147.964 95.6994C147.731 95.4673 147.6 95.1521 147.6 94.8233C147.599 94.4944 147.729 94.1789 147.961 93.946C148.194 93.7131 148.509 93.582 148.838 93.5815H175.38C175.709 93.5811 176.025 93.7112 176.258 93.9434C176.49 94.1756 176.622 94.4908 176.622 94.8196C176.622 95.1484 176.492 95.464 176.26 95.6969C176.028 95.9297 175.713 96.0608 175.384 96.0613H175.38Z" fill="#1F74CA"/>
<path d="M158.362 90.7305H148.84C148.512 90.7308 148.196 90.6005 147.964 90.3683C147.731 90.1362 147.6 89.8211 147.6 89.4925C147.599 89.1638 147.729 88.8483 147.961 88.6155C148.193 88.3826 148.508 88.2514 148.837 88.2507H158.362C158.525 88.2504 158.686 88.2821 158.837 88.3442C158.988 88.4062 159.124 88.4973 159.24 88.6123C159.355 88.7273 159.447 88.8638 159.509 89.0142C159.572 89.1646 159.604 89.3259 159.605 89.4888C159.605 89.6517 159.573 89.813 159.511 89.9636C159.449 90.1142 159.358 90.251 159.242 90.3663C159.127 90.4817 158.991 90.5732 158.84 90.6357C158.69 90.6981 158.529 90.7304 158.366 90.7305H158.362Z" fill="#1F74CA"/>
<path d="M198.897 66.1515C198.695 66.1517 198.495 66.1126 198.308 66.0363L165.178 52.2893V9.25917C165.178 8.87867 165.33 8.51388 165.599 8.24483C165.868 7.97577 166.232 7.82442 166.613 7.82397H230.172C230.552 7.82442 230.917 7.97577 231.186 8.24483C231.455 8.51388 231.607 8.87867 231.607 9.25917V52.3194L231.545 52.346L199.503 66.0295C199.311 66.1102 199.105 66.1516 198.897 66.1515Z" fill="white"/>
<path d="M198.898 66.2539C198.683 66.2541 198.47 66.2124 198.27 66.1311L165.076 52.3578V9.25915C165.077 8.85146 165.239 8.46061 165.527 8.17233C165.815 7.88405 166.206 7.7219 166.614 7.72144H230.173C230.58 7.7219 230.971 7.88405 231.26 8.17233C231.548 8.46061 231.71 8.85146 231.71 9.25915V52.387L199.544 66.1237C199.339 66.2098 199.12 66.2541 198.898 66.2539ZM165.486 52.0839L198.427 65.752C198.734 65.8767 199.078 65.8746 199.384 65.7463L231.3 52.1163V9.25915C231.3 8.96018 231.181 8.67357 230.97 8.46218C230.758 8.25078 230.472 8.13187 230.173 8.13151H166.614C166.315 8.13187 166.028 8.25078 165.817 8.46218C165.606 8.67357 165.487 8.96018 165.486 9.25915L165.486 52.0839Z" fill="#3F3D56"/>
<path d="M255.083 42.1663H255.042L231.505 52.2168L199.301 65.968C199.175 66.021 199.04 66.0486 198.904 66.0493C198.767 66.05 198.632 66.0238 198.506 65.9721L165.281 52.188L141.165 42.1827L141.129 42.1663H141.088C140.707 42.1667 140.342 42.318 140.073 42.5871C139.804 42.8561 139.653 43.221 139.652 43.6015V105.93C139.653 106.311 139.804 106.675 140.073 106.945C140.342 107.214 140.707 107.365 141.088 107.365H255.083C255.464 107.365 255.829 107.214 256.098 106.945C256.367 106.675 256.518 106.311 256.519 105.93V43.6015C256.518 43.221 256.367 42.8561 256.098 42.5871C255.829 42.318 255.464 42.1667 255.083 42.1663ZM256.109 105.93C256.108 106.202 256 106.463 255.808 106.655C255.616 106.847 255.355 106.955 255.083 106.955H141.088C140.816 106.955 140.555 106.847 140.363 106.655C140.171 106.463 140.063 106.202 140.062 105.93V43.6015C140.063 43.3364 140.166 43.0817 140.349 42.8906C140.533 42.6996 140.784 42.587 141.049 42.5763L165.281 52.6309L198.348 66.3514C198.706 66.4971 199.107 66.4948 199.463 66.3453L231.505 52.6617L255.124 42.5763C255.389 42.5877 255.639 42.7007 255.822 42.8916C256.005 43.0825 256.108 43.3368 256.109 43.6015V105.93Z" fill="#3F3D56"/>
<path d="M193.738 23.9086H171.185C170.75 23.908 170.334 23.7349 170.026 23.4274C169.719 23.1199 169.547 22.703 169.547 22.2684C169.547 21.8338 169.719 21.4169 170.026 21.1094C170.334 20.8019 170.75 20.6288 171.185 20.6282H193.738C194.173 20.6288 194.589 20.8019 194.896 21.1094C195.203 21.4169 195.376 21.8338 195.376 22.2684C195.376 22.703 195.203 23.1199 194.896 23.4274C194.589 23.7349 194.173 23.908 193.738 23.9086Z" fill="#1F74CA"/>
<path d="M182.052 16.9377H171.185C170.75 16.9377 170.333 16.7649 170.025 16.4573C169.718 16.1497 169.545 15.7325 169.545 15.2975C169.545 14.8624 169.718 14.4452 170.025 14.1376C170.333 13.83 170.75 13.6572 171.185 13.6572H182.052C182.487 13.6572 182.904 13.83 183.211 14.1376C183.519 14.4452 183.692 14.8624 183.692 15.2975C183.692 15.7325 183.519 16.1497 183.211 16.4573C182.904 16.7649 182.487 16.9377 182.052 16.9377Z" fill="#1F74CA"/>
<path d="M215.26 40.311H180.816C180.381 40.3104 179.964 40.1373 179.657 39.8297C179.35 39.5222 179.178 39.1054 179.178 38.6707C179.178 38.2361 179.35 37.8193 179.657 37.5118C179.964 37.2042 180.381 37.0311 180.816 37.0305H215.26C215.695 37.0311 216.112 37.2042 216.419 37.5118C216.726 37.8193 216.898 38.2361 216.898 38.6707C216.898 39.1054 216.726 39.5222 216.419 39.8297C216.112 40.1373 215.695 40.3104 215.26 40.311Z" fill="#CCCCCC"/>
<path d="M215.261 47.8972H180.816C180.381 47.8972 179.964 47.7243 179.656 47.4167C179.349 47.1091 179.176 46.6919 179.176 46.2569C179.176 45.8219 179.349 45.4047 179.656 45.0971C179.964 44.7895 180.381 44.6167 180.816 44.6167H215.261C215.696 44.6167 216.113 44.7895 216.421 45.0971C216.728 45.4047 216.901 45.8219 216.901 46.2569C216.901 46.6919 216.728 47.1091 216.421 47.4167C216.113 47.7243 215.696 47.8972 215.261 47.8972Z" fill="#CCCCCC"/>
<path d="M254.446 58.3569C263.06 58.3569 270.042 51.3742 270.042 42.7605C270.042 34.1468 263.06 27.1641 254.446 27.1641C245.832 27.1641 238.85 34.1468 238.85 42.7605C238.85 51.3742 245.832 58.3569 254.446 58.3569Z" fill="#1F74CA"/>
<path d="M252.961 49.3445L248.293 43.3421L251.008 41.2307L253.218 44.0727L260.684 36.1904L263.181 38.556L252.961 49.3445Z" fill="white"/>
<path d="M79.922 134.939C79.65 134.538 79.469 134.083 79.3919 133.606C79.3148 133.128 79.3434 132.639 79.4757 132.173C79.6079 131.708 79.8407 131.277 80.1575 130.911C80.4743 130.545 80.8675 130.253 81.3094 130.055L80.2951 118.334L85.6702 121.247L85.8094 131.931C86.092 132.696 86.0844 133.537 85.788 134.296C85.4917 135.055 84.9272 135.679 84.2015 136.05C83.4758 136.421 82.6393 136.512 81.8506 136.308C81.0618 136.103 80.3756 135.616 79.922 134.939Z" fill="#9F616A"/>
<path d="M80.9421 127.524L80.8984 127.413L74.9683 112.432L74.0273 84.0341L74.1854 84.0229C75.3434 83.9402 76.5062 84.0897 77.6056 84.4627C78.705 84.8356 79.7188 85.4246 80.5875 86.1948C81.4561 86.9651 82.162 87.9011 82.6638 88.948C83.1656 89.9949 83.4532 91.1315 83.5096 92.2911L84.3793 107.559L86.8448 127.196L80.9421 127.524Z" fill="#E5E5E5"/>
<path d="M43.0605 190.136L46.4695 192.298L56.4279 180.177L51.3965 176.987L43.0605 190.136Z" fill="#9F616A"/>
<path d="M42.8943 188.472L49.6079 192.728C50.7426 193.448 51.5452 194.589 51.8389 195.9C52.1325 197.211 51.8934 198.585 51.1741 199.719L51.0859 199.858L40.0938 192.89L42.8943 188.472Z" fill="#2F2E41"/>
<path d="M75.2878 195.946L79.3242 195.945L81.2443 180.376L75.2871 180.377L75.2878 195.946Z" fill="#9F616A"/>
<path d="M74.2578 194.628L82.2069 194.627H82.2073C83.5508 194.628 84.8392 195.161 85.7892 196.111C86.7392 197.061 87.273 198.35 87.2731 199.693V199.858L74.2581 199.858L74.2578 194.628Z" fill="#2F2E41"/>
<path d="M63.8672 130.713L73.3698 187.869C73.3698 187.869 71.5004 192.542 74.3044 193.165C77.1085 193.789 83.3397 192.542 83.3397 192.542C83.3397 192.542 85.209 187.869 82.405 187.246L77.1085 127.526L63.8672 130.713Z" fill="#2F2E41"/>
<path d="M69.4774 131.732L62.8942 158.458L46.1104 182.828C46.1104 182.828 39.8793 183.451 43.3064 186.878C46.7336 190.305 48.2914 190.617 48.2914 190.617C48.2914 190.617 53.5879 189.994 53.2763 187.501L73.9108 163.213L83.4976 130.797L69.4774 131.732Z" fill="#2F2E41"/>
<path d="M63.7301 134.085L62.1402 125.012C59.746 122.51 64.2698 116.323 64.7742 115.651L64.4783 111.804C64.226 111.761 63.9953 111.635 63.8222 111.447C62.337 109.932 62.4368 103.956 62.4417 103.703L60.8027 86.653L64.8806 84.2741L75.193 83.9417L80.2291 88.3063L85.0797 132.869L84.9067 132.879L63.7301 134.085Z" fill="#E5E5E5"/>
<path d="M67.2981 137.268C66.8825 137.02 66.5263 136.684 66.2547 136.283C65.983 135.883 65.8024 135.427 65.7258 134.949C65.6491 134.471 65.6781 133.983 65.8108 133.517C65.9435 133.052 66.1767 132.621 66.4938 132.255L60.625 122.058L66.7276 122.43L71.3651 132.056C71.944 132.629 72.2924 133.395 72.3443 134.209C72.3962 135.022 72.1479 135.826 71.6466 136.468C71.1453 137.111 70.4258 137.547 69.6243 137.694C68.8229 137.842 67.9952 137.69 67.2981 137.268Z" fill="#9F616A"/>
<path d="M62.1029 127.733L57.0404 115.997L56.1943 92.0252C56.1654 91.2376 56.3528 90.4571 56.7363 89.7685C57.1198 89.08 57.6847 88.5097 58.3696 88.1197L64.2098 84.5508L65.4699 109.752L69.2385 124.814L62.1029 127.733Z" fill="#E5E5E5"/>
<path d="M71.1894 81.6683C75.1912 81.6683 78.4353 78.4241 78.4353 74.4223C78.4353 70.4204 75.1912 67.1763 71.1894 67.1763C67.1875 67.1763 63.9434 70.4204 63.9434 74.4223C63.9434 78.4241 67.1875 81.6683 71.1894 81.6683Z" fill="#9F616A"/>
<path d="M73.8083 63.7232C66.5108 61.6188 64.4394 67.6672 64.4394 67.6672C60.9219 70.0008 63.1241 72.9267 63.1241 72.9267C62.2366 73.1238 64.0112 78.3178 64.603 78.1863C64.9187 78.1162 65.7306 79.0854 66.4192 80.0045C66.6554 80.0042 66.891 80.0268 67.1227 80.0721L65.7866 75.1293C65.7866 75.1293 70.2902 74.4393 71.671 72.2699C72.992 70.1943 77.3408 69.539 78.5784 70.9254C78.6516 70.5268 78.8015 70.1461 79.0198 69.8047C79.1888 69.5453 79.4098 69.3238 79.6687 69.1541C78.5745 64.504 73.8083 63.7232 73.8083 63.7232Z" fill="#2F2E41"/>
<path opacity="0.2" d="M65.5879 100.57L65.1836 114.994L70.2018 125.571L65.5879 100.187" fill="black"/>
<path d="M126.751 200H1.31166C1.22434 200 1.1406 199.965 1.07885 199.904C1.01711 199.842 0.982422 199.758 0.982422 199.671C0.982422 199.583 1.01711 199.5 1.07885 199.438C1.1406 199.376 1.22434 199.342 1.31166 199.342H126.751C126.839 199.342 126.922 199.376 126.984 199.438C127.046 199.5 127.08 199.583 127.08 199.671C127.08 199.758 127.046 199.842 126.984 199.904C126.922 199.965 126.839 200 126.751 200Z" fill="#3F3D56"/>
<path d="M109.414 15.5657C109.308 15.5028 109.185 15.4711 109.062 15.4743C108.938 15.4776 108.818 15.5156 108.715 15.584C108.612 15.6524 108.53 15.7485 108.479 15.8612C108.428 15.9739 108.41 16.0986 108.427 16.2212L108.935 19.9492C108.942 20.0042 108.939 20.06 108.924 20.1135C108.908 20.1662 108.882 20.2151 108.846 20.2571L105.999 23.6297C105.904 23.7383 105.848 23.8756 105.841 24.0198C105.833 24.1639 105.874 24.3064 105.957 24.4243L105.96 24.4287C106.04 24.5479 106.157 24.637 106.294 24.6819C106.43 24.7268 106.577 24.7248 106.712 24.6762L108.768 23.9784C108.836 23.9559 108.909 23.9523 108.979 23.968C109.049 23.9838 109.113 24.0183 109.165 24.0679C109.204 24.1038 109.235 24.1473 109.256 24.1957C109.277 24.2441 109.288 24.2963 109.288 24.3492L109.368 31.6743C109.369 31.7804 109.396 31.8846 109.446 31.9781C109.496 32.0715 109.568 32.1513 109.656 32.2106C109.744 32.2698 109.844 32.3071 109.949 32.3193C110.054 32.3316 110.161 32.3184 110.26 32.2809L125.604 26.4124C125.72 26.3684 125.821 26.2926 125.896 26.1938C125.97 26.0949 126.015 25.9771 126.026 25.8537C126.036 25.7304 126.012 25.6065 125.955 25.4965C125.898 25.3864 125.812 25.2946 125.705 25.2316L125.496 25.1075L109.414 15.5657ZM108.687 16.1854C108.677 16.1118 108.688 16.0369 108.719 15.9693C108.749 15.9017 108.798 15.8441 108.86 15.8032C108.922 15.7622 108.995 15.7395 109.069 15.7376C109.143 15.7358 109.216 15.7548 109.28 15.7927L125.357 25.3317L125.571 25.4585C125.635 25.4966 125.686 25.5517 125.72 25.6176C125.754 25.6835 125.769 25.7576 125.762 25.8314C125.756 25.9052 125.729 25.9758 125.685 26.0351C125.64 26.0944 125.58 26.14 125.511 26.1667L110.166 32.0352C110.107 32.0578 110.043 32.0657 109.98 32.0583C109.917 32.0509 109.857 32.0284 109.804 31.9926C109.752 31.9569 109.709 31.909 109.679 31.8531C109.648 31.7971 109.632 31.7348 109.632 31.6713L109.551 24.3461C109.551 24.2737 109.539 24.2017 109.515 24.1335L125.137 25.9284C125.198 25.9361 125.26 25.9221 125.311 25.8891C125.363 25.8561 125.402 25.806 125.42 25.7475C125.439 25.689 125.437 25.6259 125.414 25.5689C125.391 25.512 125.349 25.4648 125.295 25.4356C125.282 25.4283 125.268 25.4223 125.254 25.4177L109.2 20.0589C109.204 20.0104 109.202 19.9616 109.195 19.9134L108.687 16.1854Z" fill="#F1F1F1"/>
<path d="M109.414 15.5657C109.308 15.5028 109.185 15.4711 109.062 15.4743C108.938 15.4776 108.818 15.5156 108.715 15.584C108.612 15.6524 108.53 15.7485 108.479 15.8612C108.428 15.9739 108.41 16.0986 108.427 16.2212L108.935 19.9492C108.942 20.0042 108.939 20.06 108.924 20.1135C108.908 20.1662 108.882 20.2151 108.846 20.2571L105.999 23.6297C105.904 23.7383 105.848 23.8756 105.841 24.0198C105.833 24.1639 105.874 24.3064 105.957 24.4243L105.96 24.4287C106.04 24.5479 106.157 24.637 106.294 24.6819C106.43 24.7268 106.577 24.7248 106.712 24.6762L108.768 23.9784C108.836 23.9559 108.909 23.9523 108.979 23.968C109.049 23.9838 109.113 24.0183 109.165 24.0679C109.204 24.1038 109.235 24.1473 109.256 24.1957C109.277 24.2441 109.288 24.2963 109.288 24.3492L109.368 31.6743C109.369 31.7804 109.396 31.8846 109.446 31.9781C109.496 32.0715 109.568 32.1513 109.656 32.2106C109.744 32.2698 109.844 32.3071 109.949 32.3193C110.054 32.3316 110.161 32.3184 110.26 32.2809L125.604 26.4124C125.72 26.3684 125.821 26.2926 125.896 26.1938C125.97 26.0949 126.015 25.9771 126.026 25.8537C126.036 25.7304 126.012 25.6065 125.955 25.4965C125.898 25.3864 125.812 25.2946 125.705 25.2316L125.496 25.1075L109.414 15.5657ZM108.687 16.1854C108.677 16.1118 108.688 16.0369 108.719 15.9693C108.749 15.9017 108.798 15.8441 108.86 15.8032C108.922 15.7622 108.995 15.7395 109.069 15.7376C109.143 15.7358 109.216 15.7548 109.28 15.7927L125.357 25.3317L125.571 25.4585C125.635 25.4966 125.686 25.5517 125.72 25.6176C125.754 25.6835 125.769 25.7576 125.762 25.8314C125.756 25.9052 125.729 25.9758 125.685 26.0351C125.64 26.0944 125.58 26.14 125.511 26.1667L110.166 32.0352C110.107 32.0578 110.043 32.0657 109.98 32.0583C109.917 32.0509 109.857 32.0284 109.804 31.9926C109.752 31.9569 109.709 31.909 109.679 31.8531C109.648 31.7971 109.632 31.7348 109.632 31.6713L109.551 24.3461C109.551 24.2736 109.539 24.2017 109.514 24.1334C109.48 24.0352 109.422 23.9467 109.346 23.8759C109.336 23.8655 109.324 23.8559 109.313 23.8462L109.312 23.8451C109.226 23.774 109.123 23.726 109.013 23.7058C108.903 23.6856 108.79 23.6938 108.684 23.7297L106.627 24.4283C106.546 24.4577 106.457 24.4588 106.375 24.4316C106.293 24.4043 106.223 24.3502 106.176 24.278L106.174 24.2759C106.124 24.2054 106.099 24.1198 106.104 24.0332C106.108 23.9466 106.142 23.8642 106.2 23.7995L109.047 20.4269C109.077 20.3916 109.104 20.353 109.125 20.3118L109.126 20.311C109.147 20.2716 109.164 20.23 109.176 20.187C109.189 20.1452 109.197 20.1023 109.2 20.0589C109.204 20.0104 109.202 19.9616 109.195 19.9134L108.687 16.1854Z" fill="#E5E5E5"/>
<path d="M109.198 20.0588L125.252 25.4177C125.267 25.4223 125.28 25.4283 125.294 25.4356C125.348 25.4648 125.39 25.5119 125.413 25.5689C125.435 25.6258 125.438 25.689 125.419 25.7475C125.4 25.8059 125.362 25.856 125.31 25.8891C125.258 25.9221 125.197 25.936 125.136 25.9284L109.513 24.1334L109.237 24.102L109.268 23.8411L109.311 23.8451L109.311 23.8461L125.165 25.6664L109.125 20.311L109.124 20.3117L109.055 20.2878L109.138 20.0383L109.198 20.0588Z" fill="#E5E5E5"/>
<path d="M288.442 0.0915928L272.36 9.63341L272.151 9.7575C272.044 9.82052 271.958 9.91233 271.901 10.0224C271.844 10.1324 271.82 10.2563 271.831 10.3796C271.841 10.5029 271.886 10.6208 271.961 10.7196C272.035 10.8185 272.136 10.8943 272.252 10.9383L287.597 16.8068C287.696 16.8443 287.802 16.8574 287.907 16.8452C288.012 16.833 288.112 16.7957 288.2 16.7365C288.288 16.6772 288.36 16.5974 288.41 16.5039C288.46 16.4105 288.487 16.3063 288.488 16.2002L288.568 8.87504C288.568 8.82223 288.579 8.76998 288.6 8.72157C288.621 8.67316 288.652 8.62964 288.691 8.59375C288.743 8.54419 288.807 8.50969 288.877 8.49393C288.947 8.47818 289.02 8.48176 289.088 8.50431L291.144 9.20212C291.279 9.25065 291.427 9.25264 291.563 9.20777C291.699 9.1629 291.816 9.07376 291.896 8.95454L291.899 8.95021C291.982 8.83226 292.023 8.68977 292.016 8.54565C292.008 8.40153 291.952 8.26414 291.857 8.15559L289.01 4.783C288.975 4.741 288.948 4.69213 288.932 4.63943C288.918 4.58589 288.914 4.53009 288.921 4.47512L289.429 0.747054C289.446 0.624518 289.428 0.499755 289.377 0.387061C289.326 0.274367 289.244 0.178307 289.141 0.109889C289.038 0.0414713 288.918 0.00346216 288.794 0.000225481C288.671 -0.0030112 288.549 0.0286592 288.442 0.0915928ZM289.169 0.71125L288.661 4.4393C288.654 4.48746 288.653 4.53625 288.657 4.58475L272.603 9.94356C272.588 9.94816 272.575 9.95416 272.561 9.96146C272.507 9.99067 272.465 10.0378 272.442 10.0948C272.42 10.1517 272.417 10.2149 272.436 10.2734C272.455 10.3318 272.493 10.3819 272.545 10.415C272.597 10.448 272.658 10.4619 272.719 10.4543L288.342 8.65933C288.317 8.72758 288.305 8.79953 288.305 8.87202L288.225 16.1971C288.224 16.2606 288.208 16.323 288.178 16.3789C288.148 16.4349 288.105 16.4828 288.052 16.5185C288 16.5542 287.939 16.5768 287.876 16.5842C287.813 16.5916 287.749 16.5837 287.69 16.5611L272.345 10.6926C272.276 10.6659 272.216 10.6202 272.171 10.561C272.127 10.5017 272.1 10.4311 272.094 10.3573C272.088 10.2835 272.102 10.2094 272.136 10.1435C272.17 10.0775 272.221 10.0224 272.285 9.98442L272.499 9.85754L288.576 0.318552C288.64 0.280718 288.713 0.261637 288.788 0.263491C288.862 0.265345 288.934 0.28806 288.996 0.329036C289.058 0.370012 289.107 0.42759 289.138 0.495182C289.168 0.562774 289.179 0.63767 289.169 0.71125Z" fill="#F1F1F1"/>
<path d="M288.442 0.0915928L272.36 9.63341L272.151 9.7575C272.044 9.82052 271.958 9.91233 271.901 10.0224C271.844 10.1324 271.82 10.2563 271.831 10.3796C271.841 10.5029 271.886 10.6208 271.961 10.7196C272.035 10.8185 272.136 10.8943 272.252 10.9383L287.597 16.8068C287.696 16.8443 287.802 16.8574 287.907 16.8452C288.012 16.833 288.112 16.7957 288.2 16.7365C288.288 16.6772 288.36 16.5974 288.41 16.5039C288.46 16.4105 288.487 16.3063 288.488 16.2002L288.568 8.87504C288.568 8.82223 288.579 8.76998 288.6 8.72157C288.621 8.67316 288.652 8.62964 288.691 8.59375C288.743 8.54419 288.807 8.50969 288.877 8.49393C288.947 8.47818 289.02 8.48176 289.088 8.50431L291.144 9.20212C291.279 9.25065 291.427 9.25264 291.563 9.20777C291.699 9.1629 291.816 9.07376 291.896 8.95454L291.899 8.95021C291.982 8.83226 292.023 8.68977 292.016 8.54565C292.008 8.40153 291.952 8.26414 291.857 8.15559L289.01 4.783C288.975 4.741 288.948 4.69213 288.932 4.63943C288.918 4.58589 288.914 4.53009 288.921 4.47512L289.429 0.747054C289.446 0.624518 289.428 0.499755 289.377 0.387061C289.326 0.274367 289.244 0.178307 289.141 0.109889C289.038 0.0414713 288.918 0.00346216 288.794 0.000225481C288.671 -0.0030112 288.549 0.0286592 288.442 0.0915928ZM289.169 0.71125L288.661 4.43931C288.654 4.48746 288.653 4.53625 288.657 4.58476C288.66 4.62816 288.668 4.67109 288.68 4.71283C288.692 4.75585 288.709 4.79744 288.73 4.8369L288.731 4.83765C288.753 4.87886 288.779 4.91749 288.81 4.95281L291.656 8.32535C291.714 8.39008 291.748 8.47251 291.753 8.55909C291.757 8.64567 291.732 8.73124 291.682 8.80173L291.68 8.8039C291.633 8.87607 291.563 8.93018 291.481 8.95745C291.399 8.98472 291.311 8.98355 291.23 8.95412L289.173 8.25556C289.067 8.21969 288.953 8.21146 288.843 8.23167C288.734 8.25187 288.631 8.29983 288.544 8.371L288.544 8.37206C288.532 8.38174 288.521 8.39138 288.51 8.40177C288.434 8.47262 288.376 8.56103 288.342 8.65932C288.317 8.72757 288.305 8.79952 288.305 8.87201L288.225 16.1971C288.224 16.2606 288.208 16.323 288.178 16.3789C288.148 16.4349 288.105 16.4828 288.052 16.5185C288 16.5542 287.939 16.5768 287.876 16.5842C287.813 16.5916 287.749 16.5837 287.69 16.5611L272.345 10.6926C272.276 10.6659 272.216 10.6202 272.171 10.561C272.127 10.5017 272.1 10.4311 272.094 10.3573C272.088 10.2835 272.102 10.2094 272.136 10.1435C272.17 10.0775 272.221 10.0224 272.285 9.98442L272.499 9.85754L288.576 0.318557C288.64 0.280723 288.713 0.261642 288.788 0.263496C288.862 0.26535 288.934 0.288065 288.996 0.329041C289.058 0.370017 289.107 0.427595 289.138 0.495187C289.168 0.562779 289.179 0.63767 289.169 0.71125Z" fill="#E5E5E5"/>
<path d="M288.719 4.56421L288.803 4.81366L288.733 4.8376L288.732 4.83686L272.692 10.1923L288.546 8.37201L288.547 8.37096L288.589 8.36695L288.62 8.62786L288.344 8.65928L272.722 10.4543C272.661 10.4619 272.599 10.448 272.547 10.4149C272.496 10.3819 272.457 10.3318 272.438 10.2734C272.42 10.2149 272.422 10.1517 272.445 10.0948C272.468 10.0378 272.51 9.99064 272.564 9.96143C272.577 9.95414 272.591 9.94814 272.605 9.94353L288.659 4.58473L288.719 4.56421Z" fill="#E5E5E5"/>
<path d="M150.827 133.414C150.717 133.471 150.625 133.557 150.562 133.663C150.498 133.769 150.466 133.891 150.469 134.015C150.472 134.138 150.509 134.259 150.577 134.362C150.645 134.465 150.741 134.547 150.854 134.599L154.276 136.161C154.326 136.185 154.372 136.218 154.409 136.259C154.445 136.3 154.472 136.349 154.489 136.401L155.818 140.61C155.859 140.748 155.945 140.869 156.063 140.952C156.181 141.036 156.323 141.077 156.467 141.07L156.472 141.07C156.616 141.066 156.754 141.015 156.865 140.924C156.975 140.832 157.052 140.707 157.083 140.567L157.592 138.456C157.61 138.387 157.646 138.323 157.696 138.272C157.747 138.221 157.811 138.185 157.88 138.168C157.931 138.154 157.985 138.152 158.037 138.16C158.089 138.168 158.139 138.186 158.184 138.215L164.418 142.062C164.508 142.118 164.61 142.151 164.716 142.158C164.822 142.166 164.928 142.148 165.025 142.105C165.122 142.063 165.207 141.997 165.274 141.915C165.34 141.833 165.386 141.736 165.407 141.633L168.647 125.527C168.672 125.405 168.662 125.279 168.618 125.164C168.574 125.048 168.499 124.947 168.4 124.872C168.302 124.797 168.184 124.751 168.061 124.741C167.937 124.73 167.813 124.754 167.703 124.81L167.487 124.92L150.827 133.414ZM150.962 134.36C150.895 134.329 150.837 134.28 150.797 134.218C150.756 134.156 150.733 134.083 150.732 134.009C150.73 133.935 150.75 133.862 150.788 133.798C150.826 133.734 150.881 133.682 150.947 133.649L167.602 125.158L167.823 125.045C167.89 125.011 167.964 124.997 168.037 125.004C168.111 125.011 168.182 125.038 168.241 125.083C168.3 125.127 168.345 125.188 168.371 125.257C168.398 125.326 168.404 125.401 168.39 125.474L165.149 141.58C165.137 141.642 165.109 141.7 165.069 141.75C165.029 141.799 164.978 141.838 164.92 141.863C164.862 141.889 164.798 141.899 164.735 141.895C164.671 141.89 164.61 141.871 164.556 141.837L158.322 137.991C158.261 137.952 158.193 137.924 158.122 137.908L167.988 125.663C168.027 125.616 168.049 125.556 168.048 125.495C168.048 125.433 168.026 125.374 167.987 125.327C167.948 125.28 167.893 125.248 167.833 125.237C167.772 125.226 167.71 125.236 167.656 125.266C167.643 125.273 167.631 125.282 167.619 125.291L154.51 135.997C154.471 135.967 154.429 135.943 154.385 135.923L150.962 134.36Z" fill="#F1F1F1"/>
<path d="M150.827 133.414C150.717 133.471 150.625 133.557 150.562 133.663C150.498 133.769 150.466 133.891 150.469 134.015C150.472 134.138 150.509 134.259 150.577 134.362C150.645 134.465 150.741 134.547 150.854 134.599L154.276 136.161C154.326 136.185 154.372 136.218 154.409 136.259C154.445 136.3 154.472 136.349 154.489 136.401L155.818 140.61C155.859 140.748 155.945 140.869 156.063 140.952C156.181 141.036 156.323 141.077 156.467 141.07L156.472 141.07C156.616 141.066 156.754 141.015 156.865 140.924C156.975 140.832 157.052 140.707 157.083 140.567L157.592 138.456C157.61 138.387 157.646 138.323 157.696 138.272C157.747 138.221 157.811 138.185 157.88 138.168C157.931 138.154 157.985 138.152 158.037 138.16C158.089 138.168 158.139 138.186 158.184 138.215L164.418 142.062C164.508 142.118 164.61 142.151 164.716 142.158C164.822 142.166 164.928 142.148 165.025 142.105C165.122 142.063 165.207 141.997 165.274 141.915C165.34 141.833 165.386 141.736 165.407 141.633L168.647 125.527C168.672 125.405 168.662 125.279 168.618 125.164C168.574 125.048 168.499 124.947 168.4 124.872C168.302 124.797 168.184 124.751 168.061 124.741C167.937 124.73 167.813 124.754 167.703 124.81L167.487 124.92L150.827 133.414ZM150.962 134.36C150.895 134.329 150.837 134.28 150.797 134.218C150.756 134.156 150.733 134.083 150.732 134.009C150.73 133.935 150.75 133.862 150.788 133.798C150.826 133.734 150.881 133.682 150.947 133.649L167.602 125.158L167.823 125.045C167.89 125.011 167.964 124.997 168.037 125.004C168.111 125.011 168.182 125.038 168.241 125.083C168.3 125.127 168.345 125.188 168.371 125.257C168.398 125.326 168.404 125.401 168.39 125.474L165.149 141.58C165.137 141.642 165.109 141.7 165.069 141.75C165.029 141.799 164.978 141.838 164.92 141.863C164.862 141.889 164.798 141.899 164.735 141.895C164.671 141.89 164.61 141.871 164.556 141.837L158.322 137.991C158.261 137.952 158.193 137.924 158.122 137.908C158.021 137.885 157.915 137.886 157.815 137.913C157.8 137.916 157.786 137.921 157.772 137.925L157.77 137.925C157.664 137.96 157.569 138.021 157.493 138.104C157.417 138.186 157.363 138.286 157.337 138.394L156.828 140.506C156.81 140.591 156.763 140.666 156.697 140.721C156.63 140.775 156.547 140.806 156.46 140.807L156.458 140.807C156.371 140.812 156.285 140.788 156.215 140.737C156.144 140.687 156.092 140.615 156.069 140.531L154.74 136.323C154.726 136.278 154.707 136.235 154.684 136.195L154.684 136.193C154.662 136.154 154.636 136.118 154.606 136.085C154.577 136.052 154.545 136.022 154.51 135.997C154.471 135.967 154.429 135.943 154.385 135.923L150.962 134.36Z" fill="#E5E5E5"/>
<path d="M154.511 135.996L167.62 125.291C167.631 125.282 167.643 125.273 167.657 125.266C167.71 125.236 167.773 125.226 167.833 125.237C167.893 125.248 167.948 125.28 167.987 125.327C168.027 125.374 168.048 125.433 168.049 125.495C168.049 125.556 168.028 125.615 167.989 125.663L158.123 137.908L157.949 138.124L157.745 137.959L157.771 137.925L157.772 137.925L167.783 125.498L154.685 136.193L154.685 136.195L154.627 136.24L154.461 136.037L154.511 135.996Z" fill="#E5E5E5"/>
</svg>
