<svg width="25" height="24" viewBox="0 0 25 24" fill="none" xmlns="http://www.w3.org/2000/svg">
<path d="M22.6674 16.92V19.92C22.6685 20.1985 22.6115 20.4741 22.4999 20.7293C22.3884 20.9845 22.2247 21.2136 22.0195 21.4018C21.8143 21.5901 21.572 21.7335 21.3082 21.8227C21.0443 21.9119 20.7648 21.945 20.4874 21.92C17.4102 21.5856 14.4544 20.5341 11.8574 18.85C9.44124 17.3146 7.39275 15.2661 5.85741 12.85C4.16739 10.2412 3.11566 7.27097 2.78741 4.17997C2.76242 3.90344 2.79529 3.62474 2.88391 3.3616C2.97254 3.09846 3.11498 2.85666 3.30218 2.6516C3.48937 2.44653 3.71722 2.28268 3.9712 2.1705C4.22519 2.05831 4.49975 2.00024 4.77741 1.99997H7.77741C8.26272 1.9952 8.73321 2.16705 9.10118 2.48351C9.46915 2.79996 9.70949 3.23942 9.77741 3.71997C9.90404 4.68004 10.1389 5.6227 10.4774 6.52997C10.612 6.8879 10.6411 7.27689 10.5613 7.65086C10.4816 8.02482 10.2963 8.36809 10.0274 8.63998L8.75741 9.90997C10.181 12.4135 12.2539 14.4864 14.7574 15.91L16.0274 14.64C16.2993 14.3711 16.6426 14.1858 17.0165 14.1061C17.3905 14.0263 17.7795 14.0554 18.1374 14.19C19.0447 14.5285 19.9873 14.7634 20.9474 14.89C21.4332 14.9585 21.8768 15.2032 22.1939 15.5775C22.5111 15.9518 22.6796 16.4296 22.6674 16.92Z" stroke="#1F74CA" stroke-width="2" stroke-linecap="round" stroke-linejoin="round"/>
</svg>
